{"asset":{"extensions":{"ASOBO_normal_map_convention":{"tanget_space_convention":"DirectX"}},"generator":"babylon.jsglTFexporterfor3dsmax2019v1.5.0","version":"2.0"},"extensionsUsed":["ASOBO_normal_map_convention"],"scene":0,"scenes":[{"nodes":[0,1]}],"nodes":[{"mesh":0,"translation":[0.0,0.0,0.0],"rotation":[0.0,0.0,0.0,1.0],"scale":[1.0,1.0,1.0],"name":"SampleMyBox"},{"translation":[0.0,0.0,0.0],"rotation":[0.0,0.0,0.0,1.0],"scale":[1.0,1.0,1.0],"name":"Defaultlight"}],"meshes":[{"primitives":[{"attributes":{"POSITION":1,"NORMAL":2,"TEXCOORD_0":3},"indices":0,"mode":4,"material":0}],"name":"SampleMyBox"}],"accessors":[{"bufferView":0,"componentType":5123,"count":36,"type":"SCALAR","name":"accessorIndices"},{"bufferView":1,"componentType":5126,"count":36,"max":[0.5,1.0,0.5],"min":[-0.5,0.0,-0.5],"type":"VEC3","name":"accessorPositions"},{"bufferView":1,"byteOffset":432,"componentType":5126,"count":36,"type":"VEC3","name":"accessorNormals"},{"bufferView":2,"componentType":5126,"count":36,"type":"VEC2","name":"accessorUVs"}],"bufferViews":[{"buffer":0,"byteLength":72,"name":"bufferViewScalar"},{"buffer":0,"byteOffset":72,"byteLength":864,"byteStride":12,"name":"bufferViewFloatVec3"},{"buffer":0,"byteOffset":936,"byteLength":288,"byteStride":8,"name":"bufferViewFloatVec2"}],"buffers":[{"uri":"SampleMyBox.bin","byteLength":1224}],"materials":[{"pbrMetallicRoughness":{"baseColorTexture":{"index":0}},"name":"02-Default"}],"textures":[{"source":0,"name":"Test_Checker.png"}],"images":[{"uri":"Test_Checker.png"}]}